<svg xmlns="http://www.w3.org/2000/svg" viewBox="0 0 800 600" role="img">
<defs><radialGradient id="paper"><stop stop-color="#fffdf5"/><stop offset="1" stop-color="#e8dcc0"/></radialGradient><filter id="shadow"><feDropShadow dx="0" dy="12" stdDeviation="12" flood-color="#173f49" flood-opacity=".22"/></filter></defs>
<rect width="800" height="600" rx="36" fill="url(#paper)"/><path d="M70 500C225 455 550 548 730 480" fill="none" stroke="#d2c39d" stroke-width="5" opacity=".7"/>
<g filter="url(#shadow)"><rect x="145" y="105" width="510" height="370" rx="28" fill="#f3ead3" stroke="#173f49" stroke-width="12"/><rect x="200" y="165" width="260" height="140" rx="12" fill="#d9efe8" stroke="#173f49" stroke-width="10"/><path d="M220 240h55l22-48 38 98 40-78 28 28h37" fill="none" stroke="#b8423d" stroke-width="9"/><path d="M490 175h105m-105 45h105m-105 45h70" stroke="#75918e" stroke-width="14"/><path d="M210 475v65m380-65v65" stroke="#173f49" stroke-width="12" stroke-linecap="round" stroke-linejoin="round"/><circle cx="210" cy="548" r="24" fill="#c9d4d1" stroke="#173f49" stroke-width="12"/><circle cx="590" cy="548" r="24" fill="#c9d4d1" stroke="#173f49" stroke-width="12"/><path d="M235 335h330v88H235z" fill="#fffaf0" stroke="#173f49" stroke-width="10"/><path d="M260 380h48l16-26 24 52 30-52 25 26h136" fill="none" stroke="#b8423d" stroke-width="7"/></g></svg>